<svg xmlns="http://www.w3.org/2000/svg" width="679.719" height="800" viewBox="0 0 679.719 800">
  <defs>
    <style>
      .cls-1 {
        fill-rule: evenodd;
      }
    </style>
  </defs>
  <path class="cls-1" d="M337.6,431.062h5.3c48.536-.828,87.8-17.892,116.785-50.528,63.776-71.9,53.175-195.154,52.015-206.916-4.141-88.3-45.886-130.545-80.342-150.259C405.684,8.615,375.7.663,342.239,0h-2.816c-18.388,0-54.5,2.982-89.121,22.7-34.787,19.714-77.195,61.959-81.336,150.922-1.16,11.762-11.761,135.017,52.015,206.916C249.805,413.17,289.064,430.234,337.6,431.062ZM213.2,177.759c0-.5.166-0.993,0.166-1.325C218.827,57.652,303.145,44.9,339.258,44.9h1.987c44.727,0.994,120.761,19.217,125.9,131.539a3.221,3.221,0,0,0,.166,1.325c0.165,1.16,11.761,113.813-40.916,173.121-20.873,23.525-48.7,35.121-85.311,35.452h-1.657c-36.444-.331-64.439-11.927-85.145-35.452C201.765,291.9,213.029,178.753,213.2,177.759ZM680.668,635.494V635c0-1.325-.165-2.65-0.165-4.142-0.994-32.8-3.148-109.5-75.041-134.023-0.5-.166-1.16-0.332-1.656-0.5-74.71-19.052-136.831-62.125-137.493-62.622a22.359,22.359,0,0,0-25.676,36.612c2.816,1.988,68.746,47.877,151.241,69.083,38.6,13.75,42.9,55,44.064,92.773a33.191,33.191,0,0,0,.166,4.141c0.165,14.91-.828,37.938-3.479,51.191-26.836,15.241-132.025,67.922-292.046,67.922-159.359,0-265.211-52.846-292.212-68.087-2.651-13.254-3.81-36.282-3.479-51.192,0-1.325.166-2.65,0.166-4.141,1.16-37.772,5.466-79.023,44.064-92.773,82.495-21.2,148.425-67.261,151.242-69.083a22.359,22.359,0,0,0-25.677-36.611c-0.662.5-62.451,43.569-137.492,62.621-0.663.166-1.16,0.331-1.657,0.5C3.644,521.351,1.49,598.054.5,630.689a33.2,33.2,0,0,1-.166,4.142v0.5C0.165,643.942,0,688.176,8.78,710.375a21.246,21.246,0,0,0,8.614,10.436C22.363,724.125,141.468,800,340.749,800S659.134,723.959,664.1,720.811a22.166,22.166,0,0,0,8.614-10.436C681,688.341,680.834,644.108,680.668,635.494Z" transform="translate(-0.281)"/>
</svg>
