<svg xmlns="http://www.w3.org/2000/svg" width="799" height="800" viewBox="0 0 799 800">
  <defs>
    <style>
      .cls-1 {
        fill-rule: evenodd;
      }
    </style>
  </defs>
  <path class="cls-1" d="M793.778,759.2L599.4,564.789a339.764,339.764,0,0,0,83.711-223.681C683.108,152.905,530.05,0,342.054,0,153.88,0,1,153.082,1,341.108s153.057,341.11,341.054,341.11A339.641,339.641,0,0,0,565.7,598.492L760.08,792.9a24.1,24.1,0,0,0,16.849,7.1,23.361,23.361,0,0,0,16.849-7.1A23.986,23.986,0,0,0,793.778,759.2ZM48.708,341.108c0-161.773,131.6-293.214,293.168-293.214,161.749,0,293.169,131.618,293.169,293.214S503.625,634.5,341.876,634.5C180.306,634.5,48.708,502.883,48.708,341.108Z" transform="translate(-1)"/>
</svg>
